<?xml version="1.0" standalone="no"?>
<!DOCTYPE svg PUBLIC "-//W3C//DTD SVG 20010904//EN"
 "http://www.w3.org/TR/2001/REC-SVG-20010904/DTD/svg10.dtd">
<svg version="1.0" xmlns="http://www.w3.org/2000/svg"
 width="250.000000pt" height="250.000000pt" viewBox="0 0 250.000000 250.000000"
 preserveAspectRatio="xMidYMid meet">
<metadata>
Created by potrace 1.14, written by Peter Selinger 2001-2017
</metadata>
<g transform="translate(0.000000,250.000000) scale(0.100000,-0.100000)"
fill="#000000" stroke="none">
<path d="M1125 1955 c-60 -115 -60 -115 -77 -93 -10 13 -18 28 -18 35 0 6 -3
13 -7 15 -10 4 -41 56 -54 91 -21 53 -16 60 -250 -352 -32 -56 -271 -469 -327
-566 -27 -45 -37 -72 -30 -76 17 -11 1718 -8 1724 3 3 5 -1 17 -10 27 -9 10
-16 23 -16 29 0 7 -5 12 -12 12 -6 0 -8 3 -5 6 4 4 -2 19 -12 33 -10 14 -30
46 -43 71 -87 153 -123 216 -129 220 -3 3 -9 15 -13 27 -4 13 -13 29 -19 35
-7 7 -25 38 -41 68 -16 30 -34 62 -41 70 -7 8 -16 25 -19 38 -4 12 -11 22 -15
22 -4 0 -13 16 -20 35 -7 19 -17 35 -22 35 -5 0 -9 5 -9 11 0 6 -29 61 -65
121 -36 61 -65 112 -65 115 0 3 -8 16 -19 29 l-19 24 -13 -28 c-34 -66 -115
-201 -121 -202 -5 0 -8 7 -8 15 0 8 -5 15 -11 15 -5 0 -7 5 -4 10 3 6 1 10 -6
10 -7 0 -9 3 -6 6 4 4 -2 19 -11 33 -10 14 -29 49 -42 76 -14 28 -27 52 -31
55 -3 3 -8 13 -12 23 -16 42 -42 17 -102 -98z m109 -2 c13 -27 39 -77 57 -113
19 -36 37 -66 40 -68 4 -2 -16 -43 -43 -91 -58 -101 -72 -106 -114 -40 -13 21
-24 41 -24 44 0 2 -14 28 -31 56 l-32 50 44 82 c23 45 48 92 53 104 6 13 14
23 18 23 4 0 18 -21 32 -47z"/>
<path d="M1217 923 c-12 -11 -8 -31 8 -37 17 -6 48 21 40 35 -7 10 -39 12 -48
2z"/>
<path d="M1811 910 c-13 -11 -29 -20 -37 -20 -19 0 -18 -16 1 -24 14 -5 14 -8
-1 -31 -16 -25 -44 -34 -44 -15 0 15 -44 12 -66 -5 -10 -8 -23 -15 -28 -15
-17 0 15 28 45 40 19 8 27 16 20 23 -12 12 -65 -6 -124 -43 -51 -32 -55 -32
-31 6 20 29 19 29 -28 38 -33 6 -40 3 -72 -29 -41 -41 -46 -42 -46 -15 0 25
-10 25 -54 -1 -20 -12 -36 -17 -36 -12 0 6 16 18 35 29 36 19 48 39 18 30 -10
-3 -31 -8 -48 -12 -16 -4 -46 -20 -65 -36 -49 -40 -78 -37 -45 5 14 20 10 47
-7 47 -5 0 -28 -16 -50 -35 -39 -33 -65 -38 -54 -10 2 7 0 17 -6 23 -8 8 -21
3 -44 -15 l-34 -25 6 31 c5 25 3 31 -11 31 -20 0 -75 -31 -75 -43 0 -4 -4 -6
-10 -2 -5 3 -7 12 -3 20 9 25 -29 17 -53 -10 -12 -14 -31 -27 -41 -30 -16 -3
-19 1 -15 21 3 19 0 24 -17 24 -12 0 -24 -6 -27 -14 -3 -8 -12 -17 -19 -20
-11 -4 -13 2 -8 24 5 27 3 30 -20 30 -13 0 -30 -7 -37 -16 -8 -8 -22 -20 -33
-25 -16 -9 -18 -8 -13 9 10 31 -20 35 -44 5 -19 -25 -27 -73 -14 -86 8 -8 56
16 79 39 21 21 30 12 15 -15 -18 -34 14 -38 60 -7 31 21 40 23 40 11 0 -21 21
-28 53 -16 20 8 28 7 34 -4 7 -11 13 -11 41 0 17 8 32 18 32 23 0 6 7 12 15
15 11 5 13 0 8 -23 -7 -38 10 -39 61 -5 26 17 36 20 36 10 0 -21 38 -29 64
-12 21 14 24 14 39 -4 20 -23 38 -24 77 -4 17 9 30 11 30 5 0 -16 48 -12 75 6
36 24 30 10 -15 -35 -22 -22 -40 -44 -40 -50 0 -22 43 -10 73 21 27 28 57 52
137 112 10 8 9 3 -3 -17 -10 -16 -16 -35 -13 -43 6 -17 39 -18 68 -3 15 8 26
8 43 -1 18 -10 29 -8 63 9 40 21 41 21 47 1 6 -19 8 -19 36 -5 27 14 31 14 45
0 18 -17 38 -19 64 -5 13 7 33 7 63 -2 39 -10 48 -9 90 12 26 13 54 31 63 41
26 29 -2 31 -42 4 -20 -14 -44 -25 -53 -25 -13 1 -12 3 4 12 24 14 44 39 45
56 0 28 -72 6 -139 -43 -25 -18 -37 -22 -47 -14 -19 16 9 63 39 64 13 1 33 6
43 10 16 7 13 9 -16 14 -21 4 -35 12 -35 20 0 22 -18 22 -44 1z m159 -75 c0
-2 -9 -9 -20 -15 -16 -9 -18 -8 -14 5 5 13 34 22 34 10z"/>
<path d="M481 907 c-27 -6 -51 -36 -51 -62 0 -3 21 7 47 20 25 14 48 23 51 21
2 -3 -7 -25 -22 -50 -22 -37 -30 -44 -50 -40 -31 5 -43 -13 -23 -33 20 -20 85
-9 94 15 4 9 11 20 15 23 5 3 11 12 12 20 2 8 8 25 13 39 20 48 -14 66 -86 47z"/>
</g>
</svg>
